<svg width="48" height="48" viewBox="0 0 48 48" fill="none" xmlns="http://www.w3.org/2000/svg">
<rect width="48" height="48" rx="24" fill="#1B1A19"/>
<path d="M24.2248 16.6667C24.7143 16.6695 25.9389 16.6814 27.2406 16.7337L27.7026 16.7538C29.0125 16.8152 30.3215 16.9216 30.9714 17.1022C31.8377 17.346 32.5179 18.0555 32.7479 18.9557C33.1146 20.3857 33.1604 23.1742 33.1659 23.8497L33.1669 23.9891V24.1486C33.1604 24.8242 33.1146 27.6136 32.7479 29.0427C32.5151 29.9456 31.834 30.656 30.9714 30.8962C30.3215 31.0767 29.0125 31.1831 27.7026 31.2445L27.2406 31.2656C25.9389 31.3169 24.7143 31.3297 24.2248 31.3316L24.0094 31.3325H23.7756C22.7398 31.3261 18.4076 31.2793 17.0289 30.8962C16.1636 30.6523 15.4825 29.9428 15.2524 29.0427C14.8858 27.6127 14.8399 24.8242 14.8344 24.1486V23.8497C14.8399 23.1742 14.8858 20.3847 15.2524 18.9557C15.4853 18.0527 16.1664 17.3423 17.0299 17.1031C18.4076 16.719 22.7407 16.6722 23.7765 16.6667H24.2248ZM22.1669 20.7917V27.2084L27.6669 24.0001L22.1669 20.7917Z" fill="#FCFCFD"/>
</svg>
