<svg width="48" height="48" viewBox="0 0 48 48" fill="none" xmlns="http://www.w3.org/2000/svg">
<rect width="48" height="48" rx="24" fill="#1B1A19"/>
<path d="M24.944 14.8344C25.6129 14.8318 26.2818 14.8385 26.9505 14.8545L27.1284 14.861C27.3337 14.8683 27.5363 14.8775 27.781 14.8885C28.7564 14.9343 29.4219 15.0883 30.0058 15.3147C30.6108 15.5475 31.1205 15.8629 31.6301 16.3725C32.0961 16.8305 32.4568 17.3845 32.687 17.996C32.9135 18.5799 33.0675 19.2463 33.1133 20.2216C33.1243 20.4655 33.1335 20.669 33.1408 20.8743L33.1463 21.0521C33.1626 21.7206 33.1696 22.3892 33.1674 23.0578L33.1683 23.7416V24.9425C33.1706 25.6114 33.1635 26.2803 33.1472 26.949L33.1417 27.1269C33.1344 27.3322 33.1252 27.5348 33.1142 27.7795C33.0684 28.7549 32.9125 29.4204 32.687 30.0043C32.4576 30.6164 32.0968 31.1708 31.6301 31.6286C31.1718 32.0946 30.6175 32.4552 30.0058 32.6855C29.4219 32.912 28.7564 33.066 27.781 33.1118C27.5363 33.1228 27.3337 33.132 27.1284 33.1393L26.9505 33.1448C26.2818 33.1611 25.6129 33.1681 24.944 33.1659L24.2601 33.1668H23.0602C22.3913 33.1691 21.7224 33.162 21.0536 33.1457L20.8758 33.1402C20.6582 33.1323 20.4406 33.1232 20.2231 33.1127C19.2478 33.0669 18.5823 32.911 17.9975 32.6855C17.3858 32.4558 16.8317 32.0951 16.374 31.6286C15.9075 31.1706 15.5465 30.6162 15.3162 30.0043C15.0898 29.4204 14.9358 28.7549 14.89 27.7795C14.8798 27.562 14.8706 27.3445 14.8625 27.1269L14.8579 26.949C14.841 26.2803 14.8333 25.6114 14.835 24.9425V23.0578C14.8324 22.3892 14.8391 21.7206 14.8551 21.0521L14.8615 20.8743C14.8689 20.669 14.878 20.4655 14.889 20.2216C14.9349 19.2454 15.0889 18.5808 15.3153 17.996C15.5457 17.3842 15.9074 16.8304 16.375 16.3735C16.8323 15.9067 17.386 15.5453 17.9975 15.3147C18.5823 15.0883 19.2469 14.9343 20.2231 14.8885L20.8758 14.861L21.0536 14.8564C21.722 14.8395 22.3907 14.8318 23.0593 14.8335L24.944 14.8344ZM24.0016 19.4177C23.3943 19.4091 22.7914 19.5213 22.2279 19.7478C21.6643 19.9742 21.1514 20.3104 20.7189 20.7368C20.2864 21.1633 19.943 21.6714 19.7086 22.2317C19.4742 22.792 19.3535 23.3932 19.3535 24.0006C19.3535 24.6079 19.4742 25.2092 19.7086 25.7695C19.943 26.3298 20.2864 26.8379 20.7189 27.2643C21.1514 27.6907 21.6643 28.0269 22.2279 28.2534C22.7914 28.4799 23.3943 28.5921 24.0016 28.5835C25.2172 28.5835 26.383 28.1006 27.2425 27.241C28.1021 26.3815 28.585 25.2157 28.585 24.0001C28.585 22.7846 28.1021 21.6188 27.2425 20.7592C26.383 19.8997 25.2172 19.4177 24.0016 19.4177ZM24.0016 21.251C24.3669 21.2443 24.7299 21.3104 25.0694 21.4456C25.4088 21.5807 25.7179 21.7821 25.9787 22.038C26.2394 22.294 26.4465 22.5993 26.588 22.9362C26.7294 23.2731 26.8022 23.6348 26.8023 24.0001C26.8024 24.3655 26.7296 24.7272 26.5883 25.0641C26.447 25.4011 26.24 25.7064 25.9793 25.9625C25.7187 26.2185 25.4096 26.42 25.0702 26.5553C24.7308 26.6905 24.3678 26.7567 24.0025 26.7501C23.2732 26.7501 22.5737 26.4604 22.058 25.9447C21.5423 25.4289 21.2525 24.7295 21.2525 24.0001C21.2525 23.2708 21.5423 22.5713 22.058 22.0556C22.5737 21.5399 23.2732 21.2501 24.0025 21.2501L24.0016 21.251ZM28.8141 18.0427C28.5184 18.0545 28.2387 18.1804 28.0337 18.3938C27.8286 18.6072 27.7141 18.8917 27.7141 19.1876C27.7141 19.4836 27.8286 19.7681 28.0337 19.9815C28.2387 20.1949 28.5184 20.3207 28.8141 20.3325C29.118 20.3325 29.4095 20.2118 29.6244 19.9969C29.8392 19.7821 29.96 19.4906 29.96 19.1867C29.96 18.8828 29.8392 18.5914 29.6244 18.3765C29.4095 18.1616 29.118 18.0409 28.8141 18.0409V18.0427Z" fill="#FCFCFD"/>
</svg>
